<?xml version="1.0" encoding="UTF-8"?>
<svg xmlns="http://www.w3.org/2000/svg" viewBox="0 0 240 240">
  <defs>
    <linearGradient id="g" x1="0" y1="0" x2="1" y2="1">
      <stop offset="0" stop-color="#37aee2"/>
      <stop offset="1" stop-color="#1e96c8"/>
    </linearGradient>
  </defs>
  <circle cx="120" cy="120" r="120" fill="url(#g)"/>
  <path d="M52 120c36.7-15.1 61.4-25.1 73.9-30 35.2-14 42.5-16.4 47.2-16.5 1 .0 3 .2 4.3 1.3 1.1 1 1.4 2.4 1.6 3.4.2 1 .4 3.2.2 4.9-1.7 18.1-9 62-12.7 82.2-1.6 8.7-4.7 11.7-7.6 12-6.5.6-11.4-4.3-17.6-8.4-9.8-6.4-15.3-10.5-24.8-16.9-11-7.3-3.9-11.3 2.4-17.9 1.7-1.8 31.9-29.3 32.5-31.8.1-.3.1-1.6-.6-2.3s-1.7-.4-2.5-.2c-1.1.2-18.5 11.7-52.2 34.6-4.9 3.3-9.3 4.9-13.2 4.8-4.3-.1-12.5-2.4-18.6-4.4-7.5-2.5-13.4-3.8-12.9-8.1.3-2.2 3.4-4.5 9.5-7z" fill="#fff"/>
</svg>


